<mxfile host="Electron" agent="Mozilla/5.0 (Windows NT 10.0; Win64; x64) AppleWebKit/537.36 (KHTML, like Gecko) draw.io/24.7.8 Chrome/128.0.6613.36 Electron/32.0.1 Safari/537.36" version="24.7.8">
  <diagram id="C5RBs43oDa-KdzZeNtuy" name="Page-1">
    <mxGraphModel dx="1050" dy="638" grid="1" gridSize="10" guides="1" tooltips="1" connect="1" arrows="1" fold="1" page="1" pageScale="1" pageWidth="827" pageHeight="1169" math="0" shadow="0">
      <root>
        <mxCell id="WIyWlLk6GJQsqaUBKTNV-0" />
        <mxCell id="WIyWlLk6GJQsqaUBKTNV-1" parent="WIyWlLk6GJQsqaUBKTNV-0" />
        <mxCell id="zkfFHV4jXpPFQw0GAbJ--6" value="FB_ModbusTcpMaster" style="swimlane;fontStyle=0;align=center;verticalAlign=top;childLayout=stackLayout;horizontal=1;startSize=26;horizontalStack=0;resizeParent=1;resizeLast=0;collapsible=1;marginBottom=0;rounded=0;shadow=0;strokeWidth=1;" parent="WIyWlLk6GJQsqaUBKTNV-1" vertex="1">
          <mxGeometry x="560" y="620" width="160" height="138" as="geometry">
            <mxRectangle x="130" y="380" width="160" height="26" as="alternateBounds" />
          </mxGeometry>
        </mxCell>
        <mxCell id="zkfFHV4jXpPFQw0GAbJ--9" value="" style="line;html=1;strokeWidth=1;align=left;verticalAlign=middle;spacingTop=-1;spacingLeft=3;spacingRight=3;rotatable=0;labelPosition=right;points=[];portConstraint=eastwest;" parent="zkfFHV4jXpPFQw0GAbJ--6" vertex="1">
          <mxGeometry y="26" width="160" height="54" as="geometry" />
        </mxCell>
        <mxCell id="u3NUt88tGPQhjmmbKVYY-9" value="FB_ModbusSlave" style="swimlane;fontStyle=1;align=center;verticalAlign=top;childLayout=stackLayout;horizontal=1;startSize=26;horizontalStack=0;resizeParent=1;resizeParentMax=0;resizeLast=0;collapsible=1;marginBottom=0;whiteSpace=wrap;html=1;" parent="WIyWlLk6GJQsqaUBKTNV-1" vertex="1">
          <mxGeometry x="150" y="560" width="160" height="86" as="geometry" />
        </mxCell>
        <mxCell id="u3NUt88tGPQhjmmbKVYY-10" value="+ field: type" style="text;strokeColor=none;fillColor=none;align=left;verticalAlign=top;spacingLeft=4;spacingRight=4;overflow=hidden;rotatable=0;points=[[0,0.5],[1,0.5]];portConstraint=eastwest;whiteSpace=wrap;html=1;" parent="u3NUt88tGPQhjmmbKVYY-9" vertex="1">
          <mxGeometry y="26" width="160" height="26" as="geometry" />
        </mxCell>
        <mxCell id="u3NUt88tGPQhjmmbKVYY-11" value="" style="line;strokeWidth=1;fillColor=none;align=left;verticalAlign=middle;spacingTop=-1;spacingLeft=3;spacingRight=3;rotatable=0;labelPosition=right;points=[];portConstraint=eastwest;strokeColor=inherit;" parent="u3NUt88tGPQhjmmbKVYY-9" vertex="1">
          <mxGeometry y="52" width="160" height="8" as="geometry" />
        </mxCell>
        <mxCell id="u3NUt88tGPQhjmmbKVYY-12" value="+ method(type): type" style="text;strokeColor=none;fillColor=none;align=left;verticalAlign=top;spacingLeft=4;spacingRight=4;overflow=hidden;rotatable=0;points=[[0,0.5],[1,0.5]];portConstraint=eastwest;whiteSpace=wrap;html=1;" parent="u3NUt88tGPQhjmmbKVYY-9" vertex="1">
          <mxGeometry y="60" width="160" height="26" as="geometry" />
        </mxCell>
        <mxCell id="u3NUt88tGPQhjmmbKVYY-13" value="FB_ModbusTcpSlave" style="swimlane;fontStyle=0;childLayout=stackLayout;horizontal=1;startSize=26;fillColor=none;horizontalStack=0;resizeParent=1;resizeParentMax=0;resizeLast=0;collapsible=1;marginBottom=0;whiteSpace=wrap;html=1;" parent="WIyWlLk6GJQsqaUBKTNV-1" vertex="1">
          <mxGeometry x="160" y="690" width="140" height="104" as="geometry" />
        </mxCell>
        <mxCell id="u3NUt88tGPQhjmmbKVYY-14" value="+ field: type" style="text;strokeColor=none;fillColor=none;align=left;verticalAlign=top;spacingLeft=4;spacingRight=4;overflow=hidden;rotatable=0;points=[[0,0.5],[1,0.5]];portConstraint=eastwest;whiteSpace=wrap;html=1;" parent="u3NUt88tGPQhjmmbKVYY-13" vertex="1">
          <mxGeometry y="26" width="140" height="26" as="geometry" />
        </mxCell>
        <mxCell id="u3NUt88tGPQhjmmbKVYY-15" value="+ field: type" style="text;strokeColor=none;fillColor=none;align=left;verticalAlign=top;spacingLeft=4;spacingRight=4;overflow=hidden;rotatable=0;points=[[0,0.5],[1,0.5]];portConstraint=eastwest;whiteSpace=wrap;html=1;" parent="u3NUt88tGPQhjmmbKVYY-13" vertex="1">
          <mxGeometry y="52" width="140" height="26" as="geometry" />
        </mxCell>
        <mxCell id="u3NUt88tGPQhjmmbKVYY-16" value="+ field: type" style="text;strokeColor=none;fillColor=none;align=left;verticalAlign=top;spacingLeft=4;spacingRight=4;overflow=hidden;rotatable=0;points=[[0,0.5],[1,0.5]];portConstraint=eastwest;whiteSpace=wrap;html=1;" parent="u3NUt88tGPQhjmmbKVYY-13" vertex="1">
          <mxGeometry y="78" width="140" height="26" as="geometry" />
        </mxCell>
        <mxCell id="u3NUt88tGPQhjmmbKVYY-17" style="edgeStyle=orthogonalEdgeStyle;rounded=0;orthogonalLoop=1;jettySize=auto;html=1;entryX=0.514;entryY=0.993;entryDx=0;entryDy=0;entryPerimeter=0;" parent="WIyWlLk6GJQsqaUBKTNV-1" source="u3NUt88tGPQhjmmbKVYY-13" target="u3NUt88tGPQhjmmbKVYY-12" edge="1">
          <mxGeometry relative="1" as="geometry">
            <mxPoint x="220" y="668" as="targetPoint" />
          </mxGeometry>
        </mxCell>
        <mxCell id="u3NUt88tGPQhjmmbKVYY-23" value="" style="edgeStyle=orthogonalEdgeStyle;rounded=0;orthogonalLoop=1;jettySize=auto;html=1;" parent="WIyWlLk6GJQsqaUBKTNV-1" source="u3NUt88tGPQhjmmbKVYY-18" target="u3NUt88tGPQhjmmbKVYY-12" edge="1">
          <mxGeometry relative="1" as="geometry" />
        </mxCell>
        <mxCell id="u3NUt88tGPQhjmmbKVYY-18" value="«interface»&lt;br&gt;&lt;b&gt;I_ModbusSlave&lt;/b&gt;" style="html=1;whiteSpace=wrap;" parent="WIyWlLk6GJQsqaUBKTNV-1" vertex="1">
          <mxGeometry x="340" y="608" width="110" height="50" as="geometry" />
        </mxCell>
        <mxCell id="u3NUt88tGPQhjmmbKVYY-20" value="" style="edgeStyle=orthogonalEdgeStyle;rounded=0;orthogonalLoop=1;jettySize=auto;html=1;" parent="WIyWlLk6GJQsqaUBKTNV-1" source="u3NUt88tGPQhjmmbKVYY-19" target="u3NUt88tGPQhjmmbKVYY-18" edge="1">
          <mxGeometry relative="1" as="geometry" />
        </mxCell>
        <mxCell id="u3NUt88tGPQhjmmbKVYY-22" value="" style="edgeStyle=orthogonalEdgeStyle;rounded=0;orthogonalLoop=1;jettySize=auto;html=1;entryX=1;entryY=0.5;entryDx=0;entryDy=0;" parent="WIyWlLk6GJQsqaUBKTNV-1" source="u3NUt88tGPQhjmmbKVYY-19" target="u3NUt88tGPQhjmmbKVYY-15" edge="1">
          <mxGeometry relative="1" as="geometry" />
        </mxCell>
        <mxCell id="u3NUt88tGPQhjmmbKVYY-19" value="«interface»&lt;br&gt;&lt;b&gt;I_ModbusTcpSlave&lt;/b&gt;" style="html=1;whiteSpace=wrap;" parent="WIyWlLk6GJQsqaUBKTNV-1" vertex="1">
          <mxGeometry x="340" y="730" width="110" height="50" as="geometry" />
        </mxCell>
        <mxCell id="u3NUt88tGPQhjmmbKVYY-25" value="FB_PMeter" style="swimlane;fontStyle=1;align=center;verticalAlign=top;childLayout=stackLayout;horizontal=1;startSize=26;horizontalStack=0;resizeParent=1;resizeParentMax=0;resizeLast=0;collapsible=1;marginBottom=0;whiteSpace=wrap;html=1;" parent="WIyWlLk6GJQsqaUBKTNV-1" vertex="1">
          <mxGeometry x="130" y="870" width="220" height="130" as="geometry" />
        </mxCell>
        <mxCell id="u3NUt88tGPQhjmmbKVYY-26" value="+ field: type" style="text;strokeColor=none;fillColor=none;align=left;verticalAlign=top;spacingLeft=4;spacingRight=4;overflow=hidden;rotatable=0;points=[[0,0.5],[1,0.5]];portConstraint=eastwest;whiteSpace=wrap;html=1;" parent="u3NUt88tGPQhjmmbKVYY-25" vertex="1">
          <mxGeometry y="26" width="220" height="26" as="geometry" />
        </mxCell>
        <mxCell id="u3NUt88tGPQhjmmbKVYY-27" value="" style="line;strokeWidth=1;fillColor=none;align=left;verticalAlign=middle;spacingTop=-1;spacingLeft=3;spacingRight=3;rotatable=0;labelPosition=right;points=[];portConstraint=eastwest;strokeColor=inherit;" parent="u3NUt88tGPQhjmmbKVYY-25" vertex="1">
          <mxGeometry y="52" width="220" height="8" as="geometry" />
        </mxCell>
        <mxCell id="u3NUt88tGPQhjmmbKVYY-28" value="+ method(type): type&lt;div&gt;+ RealEnergy_intoLoad : real&lt;/div&gt;" style="text;strokeColor=none;fillColor=none;align=left;verticalAlign=top;spacingLeft=4;spacingRight=4;overflow=hidden;rotatable=0;points=[[0,0.5],[1,0.5]];portConstraint=eastwest;whiteSpace=wrap;html=1;" parent="u3NUt88tGPQhjmmbKVYY-25" vertex="1">
          <mxGeometry y="60" width="220" height="70" as="geometry" />
        </mxCell>
        <mxCell id="u3NUt88tGPQhjmmbKVYY-29" value="FB_Consumetion" style="swimlane;fontStyle=1;align=center;verticalAlign=top;childLayout=stackLayout;horizontal=1;startSize=26;horizontalStack=0;resizeParent=1;resizeParentMax=0;resizeLast=0;collapsible=1;marginBottom=0;whiteSpace=wrap;html=1;" parent="WIyWlLk6GJQsqaUBKTNV-1" vertex="1">
          <mxGeometry x="430" y="820" width="220" height="230" as="geometry" />
        </mxCell>
        <mxCell id="u3NUt88tGPQhjmmbKVYY-30" value="&lt;div&gt;&lt;span style=&quot;font-family: Arial, Helvetica, sans-serif; background-color: rgb(255, 255, 255);&quot;&gt;{input}&lt;/span&gt;&lt;font face=&quot;Arial, Helvetica, sans-serif&quot;&gt;&lt;span style=&quot;background-color: rgb(255, 255, 255);&quot;&gt;&lt;br&gt;&lt;/span&gt;&lt;/font&gt;&lt;/div&gt;&lt;div&gt;&lt;font face=&quot;Arial, Helvetica, sans-serif&quot;&gt;&lt;span style=&quot;background-color: rgb(255, 255, 255);&quot;&gt;&lt;span style=&quot;white-space: pre;&quot;&gt;&#x9;&lt;/span&gt;+&lt;/span&gt;&lt;/font&gt;&amp;nbsp;lrValNow : lreal;&lt;span style=&quot;background-color: rgb(255, 255, 255); font-family: Arial, Helvetica, sans-serif;&quot;&gt;&amp;nbsp;&lt;/span&gt;&lt;span style=&quot;font-family: Arial, Helvetica, sans-serif; background-color: rgb(255, 255, 255);&quot;&gt;&lt;br&gt;&lt;/span&gt;&lt;/div&gt;&lt;span style=&quot;font-family: Arial, Helvetica, sans-serif; background-color: rgb(255, 255, 255);&quot;&gt;&lt;div&gt;&lt;span style=&quot;font-family: Arial, Helvetica, sans-serif; background-color: rgb(255, 255, 255);&quot;&gt;&lt;span style=&quot;white-space: pre;&quot;&gt;&#x9;&lt;/span&gt;+ TimeNow&lt;span style=&quot;white-space: pre;&quot;&gt;&#x9;&lt;/span&gt;: timestruct;&lt;/span&gt;&lt;/div&gt;&lt;div&gt;{internal}&lt;/div&gt;&lt;div&gt;&lt;span style=&quot;white-space: pre;&quot;&gt;&#x9;&lt;/span&gt;#&lt;span style=&quot;background-color: initial; font-family: Helvetica;&quot;&gt;&amp;nbsp;lrValprevious :lreal;&lt;/span&gt;&lt;/div&gt;&lt;div&gt;&lt;span style=&quot;white-space: pre;&quot;&gt;&#x9;&lt;/span&gt;#&lt;span style=&quot;background-color: initial; font-family: Helvetica;&quot;&gt;&amp;nbsp;lrConSume : Lreal&lt;/span&gt;&lt;/div&gt;&lt;div&gt;&lt;span style=&quot;background-color: initial; font-family: Helvetica;&quot;&gt;&lt;span style=&quot;white-space: pre;&quot;&gt;&#x9;&lt;/span&gt;#TimePrevious : timeStruct&lt;br&gt;&lt;/span&gt;&lt;/div&gt;&lt;/span&gt;&lt;div&gt;&amp;nbsp;&lt;/div&gt;" style="text;strokeColor=none;fillColor=none;align=left;verticalAlign=top;spacingLeft=4;spacingRight=4;overflow=hidden;rotatable=0;points=[[0,0.5],[1,0.5]];portConstraint=eastwest;whiteSpace=wrap;html=1;" parent="u3NUt88tGPQhjmmbKVYY-29" vertex="1">
          <mxGeometry y="26" width="220" height="134" as="geometry" />
        </mxCell>
        <mxCell id="u3NUt88tGPQhjmmbKVYY-31" value="" style="line;strokeWidth=1;fillColor=none;align=left;verticalAlign=middle;spacingTop=-1;spacingLeft=3;spacingRight=3;rotatable=0;labelPosition=right;points=[];portConstraint=eastwest;strokeColor=inherit;" parent="u3NUt88tGPQhjmmbKVYY-29" vertex="1">
          <mxGeometry y="160" width="220" height="40" as="geometry" />
        </mxCell>
        <mxCell id="u3NUt88tGPQhjmmbKVYY-37" value="Calculate(timeClock or Calandar)" style="text;html=1;align=center;verticalAlign=middle;resizable=0;points=[];autosize=1;strokeColor=none;fillColor=none;" parent="u3NUt88tGPQhjmmbKVYY-29" vertex="1">
          <mxGeometry y="200" width="220" height="30" as="geometry" />
        </mxCell>
        <mxCell id="u3NUt88tGPQhjmmbKVYY-38" value="FB_" style="swimlane;fontStyle=1;align=center;verticalAlign=top;childLayout=stackLayout;horizontal=1;startSize=26;horizontalStack=0;resizeParent=1;resizeParentMax=0;resizeLast=0;collapsible=1;marginBottom=0;whiteSpace=wrap;html=1;" parent="WIyWlLk6GJQsqaUBKTNV-1" vertex="1">
          <mxGeometry x="670" y="820" width="220" height="230" as="geometry" />
        </mxCell>
        <mxCell id="u3NUt88tGPQhjmmbKVYY-39" value="&lt;div&gt;&lt;span style=&quot;font-family: Arial, Helvetica, sans-serif; background-color: rgb(255, 255, 255);&quot;&gt;{input}&lt;/span&gt;&lt;font face=&quot;Arial, Helvetica, sans-serif&quot;&gt;&lt;span style=&quot;background-color: rgb(255, 255, 255);&quot;&gt;&lt;br&gt;&lt;/span&gt;&lt;/font&gt;&lt;/div&gt;&lt;div&gt;&lt;font face=&quot;Arial, Helvetica, sans-serif&quot;&gt;&lt;span style=&quot;background-color: rgb(255, 255, 255);&quot;&gt;&lt;span style=&quot;white-space: pre;&quot;&gt;&#x9;&lt;/span&gt;+&lt;/span&gt;&lt;/font&gt;&amp;nbsp;lrValNow : lreal;&lt;span style=&quot;background-color: rgb(255, 255, 255); font-family: Arial, Helvetica, sans-serif;&quot;&gt;&amp;nbsp;&lt;/span&gt;&lt;span style=&quot;font-family: Arial, Helvetica, sans-serif; background-color: rgb(255, 255, 255);&quot;&gt;&lt;br&gt;&lt;/span&gt;&lt;/div&gt;&lt;span style=&quot;font-family: Arial, Helvetica, sans-serif; background-color: rgb(255, 255, 255);&quot;&gt;&lt;div&gt;&lt;span style=&quot;font-family: Arial, Helvetica, sans-serif; background-color: rgb(255, 255, 255);&quot;&gt;&lt;span style=&quot;white-space: pre;&quot;&gt;&#x9;&lt;/span&gt;+ TimeNow&lt;span style=&quot;white-space: pre;&quot;&gt;&#x9;&lt;/span&gt;: timestruct;&lt;/span&gt;&lt;/div&gt;&lt;div&gt;{internal}&lt;/div&gt;&lt;div&gt;&lt;span style=&quot;white-space: pre;&quot;&gt;&#x9;&lt;/span&gt;#&lt;span style=&quot;background-color: initial; font-family: Helvetica;&quot;&gt;&amp;nbsp;lrValprevious :lreal;&lt;/span&gt;&lt;/div&gt;&lt;div&gt;&lt;span style=&quot;white-space: pre;&quot;&gt;&#x9;&lt;/span&gt;#&lt;span style=&quot;background-color: initial; font-family: Helvetica;&quot;&gt;&amp;nbsp;lrConSume : Lreal&lt;/span&gt;&lt;/div&gt;&lt;div&gt;&lt;span style=&quot;background-color: initial; font-family: Helvetica;&quot;&gt;&lt;span style=&quot;white-space: pre;&quot;&gt;&#x9;&lt;/span&gt;#TimePrevious : timeStruct&lt;br&gt;&lt;/span&gt;&lt;/div&gt;&lt;/span&gt;&lt;div&gt;&amp;nbsp;&lt;/div&gt;" style="text;strokeColor=none;fillColor=none;align=left;verticalAlign=top;spacingLeft=4;spacingRight=4;overflow=hidden;rotatable=0;points=[[0,0.5],[1,0.5]];portConstraint=eastwest;whiteSpace=wrap;html=1;" parent="u3NUt88tGPQhjmmbKVYY-38" vertex="1">
          <mxGeometry y="26" width="220" height="134" as="geometry" />
        </mxCell>
        <mxCell id="u3NUt88tGPQhjmmbKVYY-40" value="" style="line;strokeWidth=1;fillColor=none;align=left;verticalAlign=middle;spacingTop=-1;spacingLeft=3;spacingRight=3;rotatable=0;labelPosition=right;points=[];portConstraint=eastwest;strokeColor=inherit;" parent="u3NUt88tGPQhjmmbKVYY-38" vertex="1">
          <mxGeometry y="160" width="220" height="40" as="geometry" />
        </mxCell>
        <mxCell id="u3NUt88tGPQhjmmbKVYY-41" value="Calculate(timeClock or Calandar)" style="text;html=1;align=center;verticalAlign=middle;resizable=0;points=[];autosize=1;strokeColor=none;fillColor=none;" parent="u3NUt88tGPQhjmmbKVYY-38" vertex="1">
          <mxGeometry y="200" width="220" height="30" as="geometry" />
        </mxCell>
        <mxCell id="-91Cgx3Kg1AjsspPSeCS-16" style="edgeStyle=orthogonalEdgeStyle;rounded=0;orthogonalLoop=1;jettySize=auto;html=1;entryX=0;entryY=0.5;entryDx=0;entryDy=0;" edge="1" parent="WIyWlLk6GJQsqaUBKTNV-1" source="-91Cgx3Kg1AjsspPSeCS-0" target="-91Cgx3Kg1AjsspPSeCS-15">
          <mxGeometry relative="1" as="geometry" />
        </mxCell>
        <mxCell id="-91Cgx3Kg1AjsspPSeCS-17" value="PowerFactor" style="edgeLabel;html=1;align=center;verticalAlign=middle;resizable=0;points=[];" vertex="1" connectable="0" parent="-91Cgx3Kg1AjsspPSeCS-16">
          <mxGeometry x="-0.392" relative="1" as="geometry">
            <mxPoint x="17" as="offset" />
          </mxGeometry>
        </mxCell>
        <mxCell id="-91Cgx3Kg1AjsspPSeCS-0" value="fb Read" style="whiteSpace=wrap;html=1;aspect=fixed;" vertex="1" parent="WIyWlLk6GJQsqaUBKTNV-1">
          <mxGeometry x="1000" y="790" width="80" height="80" as="geometry" />
        </mxCell>
        <mxCell id="-91Cgx3Kg1AjsspPSeCS-1" value="Fb Calculate 1 Hour" style="whiteSpace=wrap;html=1;aspect=fixed;" vertex="1" parent="WIyWlLk6GJQsqaUBKTNV-1">
          <mxGeometry x="1320" y="702" width="80" height="80" as="geometry" />
        </mxCell>
        <mxCell id="-91Cgx3Kg1AjsspPSeCS-2" value="Fb Calculate 1 day" style="whiteSpace=wrap;html=1;aspect=fixed;" vertex="1" parent="WIyWlLk6GJQsqaUBKTNV-1">
          <mxGeometry x="1310" y="880" width="80" height="80" as="geometry" />
        </mxCell>
        <mxCell id="-91Cgx3Kg1AjsspPSeCS-23" style="edgeStyle=orthogonalEdgeStyle;rounded=0;orthogonalLoop=1;jettySize=auto;html=1;" edge="1" parent="WIyWlLk6GJQsqaUBKTNV-1" source="-91Cgx3Kg1AjsspPSeCS-3" target="-91Cgx3Kg1AjsspPSeCS-9">
          <mxGeometry relative="1" as="geometry">
            <Array as="points">
              <mxPoint x="1630" y="742" />
              <mxPoint x="1630" y="800" />
            </Array>
          </mxGeometry>
        </mxCell>
        <mxCell id="-91Cgx3Kg1AjsspPSeCS-3" value="StackFIFO" style="whiteSpace=wrap;html=1;aspect=fixed;" vertex="1" parent="WIyWlLk6GJQsqaUBKTNV-1">
          <mxGeometry x="1460" y="702" width="80" height="80" as="geometry" />
        </mxCell>
        <mxCell id="-91Cgx3Kg1AjsspPSeCS-4" value="StackFIFO" style="whiteSpace=wrap;html=1;aspect=fixed;" vertex="1" parent="WIyWlLk6GJQsqaUBKTNV-1">
          <mxGeometry x="1460" y="880" width="80" height="80" as="geometry" />
        </mxCell>
        <mxCell id="-91Cgx3Kg1AjsspPSeCS-5" value="" style="endArrow=classic;html=1;rounded=0;entryX=0;entryY=0.5;entryDx=0;entryDy=0;" edge="1" parent="WIyWlLk6GJQsqaUBKTNV-1" source="-91Cgx3Kg1AjsspPSeCS-0" target="-91Cgx3Kg1AjsspPSeCS-1">
          <mxGeometry width="50" height="50" relative="1" as="geometry">
            <mxPoint x="1520" y="960" as="sourcePoint" />
            <mxPoint x="1570" y="910" as="targetPoint" />
          </mxGeometry>
        </mxCell>
        <mxCell id="-91Cgx3Kg1AjsspPSeCS-19" value="&lt;span style=&quot;color: rgba(0, 0, 0, 0); font-family: monospace; font-size: 0px; text-align: start; background-color: rgb(251, 251, 251);&quot;&gt;%3CmxGraphModel%3E%3Croot%3E%3CmxCell%20id%3D%220%22%2F%3E%3CmxCell%20id%3D%221%22%20parent%3D%220%22%2F%3E%3CmxCell%20id%3D%222%22%20value%3D%22Real_energyIntoload%22%20style%3D%22edgeLabel%3Bhtml%3D1%3Balign%3Dcenter%3BverticalAlign%3Dmiddle%3Bresizable%3D0%3Bpoints%3D%5B%5D%3B%22%20vertex%3D%221%22%20connectable%3D%220%22%20parent%3D%221%22%3E%3CmxGeometry%20x%3D%221163.5617809693845%22%20y%3D%22868.0249826629597%22%20as%3D%22geometry%22%2F%3E%3C%2FmxCell%3E%3C%2Froot%3E%3C%2FmxGraphModel%3E&lt;/span&gt;" style="edgeLabel;html=1;align=center;verticalAlign=middle;resizable=0;points=[];" vertex="1" connectable="0" parent="-91Cgx3Kg1AjsspPSeCS-5">
          <mxGeometry x="-0.104" y="-1" relative="1" as="geometry">
            <mxPoint as="offset" />
          </mxGeometry>
        </mxCell>
        <mxCell id="-91Cgx3Kg1AjsspPSeCS-20" value="&lt;span style=&quot;color: rgba(0, 0, 0, 0); font-family: monospace; font-size: 0px; text-align: start; background-color: rgb(251, 251, 251);&quot;&gt;%3CmxGraphModel%3E%3Croot%3E%3CmxCell%20id%3D%220%22%2F%3E%3CmxCell%20id%3D%221%22%20parent%3D%220%22%2F%3E%3CmxCell%20id%3D%222%22%20value%3D%22Real_energyIntoload%22%20style%3D%22edgeLabel%3Bhtml%3D1%3Balign%3Dcenter%3BverticalAlign%3Dmiddle%3Bresizable%3D0%3Bpoints%3D%5B%5D%3B%22%20vertex%3D%221%22%20connectable%3D%220%22%20parent%3D%221%22%3E%3CmxGeometry%20x%3D%221163.5617809693845%22%20y%3D%22868.0249826629597%22%20as%3D%22geometry%22%2F%3E%3C%2FmxCell%3E%3C%2Froot%3E%3C%2FmxGraphModel%3E&lt;/span&gt;" style="edgeLabel;html=1;align=center;verticalAlign=middle;resizable=0;points=[];" vertex="1" connectable="0" parent="-91Cgx3Kg1AjsspPSeCS-5">
          <mxGeometry x="-0.134" y="-2" relative="1" as="geometry">
            <mxPoint x="-1" as="offset" />
          </mxGeometry>
        </mxCell>
        <mxCell id="-91Cgx3Kg1AjsspPSeCS-22" value="Valid Real_energyIntoload" style="edgeLabel;html=1;align=center;verticalAlign=middle;resizable=0;points=[];" vertex="1" connectable="0" parent="-91Cgx3Kg1AjsspPSeCS-5">
          <mxGeometry x="-0.2101" relative="1" as="geometry">
            <mxPoint as="offset" />
          </mxGeometry>
        </mxCell>
        <mxCell id="-91Cgx3Kg1AjsspPSeCS-6" value="" style="endArrow=classic;html=1;rounded=0;entryX=0;entryY=0.5;entryDx=0;entryDy=0;exitX=1;exitY=0.75;exitDx=0;exitDy=0;" edge="1" parent="WIyWlLk6GJQsqaUBKTNV-1" source="-91Cgx3Kg1AjsspPSeCS-0" target="-91Cgx3Kg1AjsspPSeCS-2">
          <mxGeometry width="50" height="50" relative="1" as="geometry">
            <mxPoint x="1240" y="830" as="sourcePoint" />
            <mxPoint x="1570" y="910" as="targetPoint" />
          </mxGeometry>
        </mxCell>
        <mxCell id="-91Cgx3Kg1AjsspPSeCS-18" value="Valid Real_energyIntoload" style="edgeLabel;html=1;align=center;verticalAlign=middle;resizable=0;points=[];" vertex="1" connectable="0" parent="-91Cgx3Kg1AjsspPSeCS-6">
          <mxGeometry x="-0.4063" y="3" relative="1" as="geometry">
            <mxPoint as="offset" />
          </mxGeometry>
        </mxCell>
        <mxCell id="-91Cgx3Kg1AjsspPSeCS-7" value="" style="endArrow=classic;html=1;rounded=0;entryX=0;entryY=0.5;entryDx=0;entryDy=0;exitX=1;exitY=0.5;exitDx=0;exitDy=0;" edge="1" parent="WIyWlLk6GJQsqaUBKTNV-1" source="-91Cgx3Kg1AjsspPSeCS-1" target="-91Cgx3Kg1AjsspPSeCS-3">
          <mxGeometry width="50" height="50" relative="1" as="geometry">
            <mxPoint x="1390" y="807" as="sourcePoint" />
            <mxPoint x="1460" y="794" as="targetPoint" />
          </mxGeometry>
        </mxCell>
        <mxCell id="-91Cgx3Kg1AjsspPSeCS-8" value="" style="endArrow=classic;html=1;rounded=0;exitX=1;exitY=0.5;exitDx=0;exitDy=0;entryX=0;entryY=0.5;entryDx=0;entryDy=0;" edge="1" parent="WIyWlLk6GJQsqaUBKTNV-1" source="-91Cgx3Kg1AjsspPSeCS-2" target="-91Cgx3Kg1AjsspPSeCS-4">
          <mxGeometry width="50" height="50" relative="1" as="geometry">
            <mxPoint x="1410" y="919.5" as="sourcePoint" />
            <mxPoint x="1450" y="920" as="targetPoint" />
          </mxGeometry>
        </mxCell>
        <mxCell id="-91Cgx3Kg1AjsspPSeCS-9" value="Aveva" style="rounded=0;whiteSpace=wrap;html=1;" vertex="1" parent="WIyWlLk6GJQsqaUBKTNV-1">
          <mxGeometry x="1710" y="770" width="240" height="400" as="geometry" />
        </mxCell>
        <mxCell id="-91Cgx3Kg1AjsspPSeCS-10" value="Round 0 number" style="rounded=0;whiteSpace=wrap;html=1;" vertex="1" parent="WIyWlLk6GJQsqaUBKTNV-1">
          <mxGeometry x="1560" y="890" width="90" height="60" as="geometry" />
        </mxCell>
        <mxCell id="-91Cgx3Kg1AjsspPSeCS-12" value="" style="endArrow=classic;html=1;rounded=0;exitX=1;exitY=0.5;exitDx=0;exitDy=0;" edge="1" parent="WIyWlLk6GJQsqaUBKTNV-1" source="-91Cgx3Kg1AjsspPSeCS-4">
          <mxGeometry width="50" height="50" relative="1" as="geometry">
            <mxPoint x="1550" y="919.5" as="sourcePoint" />
            <mxPoint x="1560" y="920" as="targetPoint" />
          </mxGeometry>
        </mxCell>
        <mxCell id="-91Cgx3Kg1AjsspPSeCS-14" style="edgeStyle=orthogonalEdgeStyle;rounded=0;orthogonalLoop=1;jettySize=auto;html=1;entryX=0.05;entryY=0.383;entryDx=0;entryDy=0;entryPerimeter=0;" edge="1" parent="WIyWlLk6GJQsqaUBKTNV-1" source="-91Cgx3Kg1AjsspPSeCS-10" target="-91Cgx3Kg1AjsspPSeCS-9">
          <mxGeometry relative="1" as="geometry" />
        </mxCell>
        <mxCell id="-91Cgx3Kg1AjsspPSeCS-24" style="edgeStyle=orthogonalEdgeStyle;rounded=0;orthogonalLoop=1;jettySize=auto;html=1;entryX=-0.01;entryY=0.233;entryDx=0;entryDy=0;entryPerimeter=0;" edge="1" parent="WIyWlLk6GJQsqaUBKTNV-1" source="-91Cgx3Kg1AjsspPSeCS-15" target="-91Cgx3Kg1AjsspPSeCS-9">
          <mxGeometry relative="1" as="geometry" />
        </mxCell>
        <mxCell id="-91Cgx3Kg1AjsspPSeCS-15" value="Round 2&lt;div&gt;&amp;nbsp;number&lt;/div&gt;" style="rounded=0;whiteSpace=wrap;html=1;" vertex="1" parent="WIyWlLk6GJQsqaUBKTNV-1">
          <mxGeometry x="1315" y="800" width="90" height="60" as="geometry" />
        </mxCell>
        <mxCell id="-91Cgx3Kg1AjsspPSeCS-25" value="fbCompare2systemTime" style="rounded=0;whiteSpace=wrap;html=1;" vertex="1" parent="WIyWlLk6GJQsqaUBKTNV-1">
          <mxGeometry x="1190" y="1050" width="150" height="60" as="geometry" />
        </mxCell>
        <mxCell id="-91Cgx3Kg1AjsspPSeCS-26" style="edgeStyle=orthogonalEdgeStyle;rounded=0;orthogonalLoop=1;jettySize=auto;html=1;entryX=0;entryY=0.775;entryDx=0;entryDy=0;entryPerimeter=0;" edge="1" parent="WIyWlLk6GJQsqaUBKTNV-1" source="-91Cgx3Kg1AjsspPSeCS-25" target="-91Cgx3Kg1AjsspPSeCS-9">
          <mxGeometry relative="1" as="geometry" />
        </mxCell>
        <mxCell id="-91Cgx3Kg1AjsspPSeCS-31" value="Bdifferent2SystemTime" style="edgeLabel;html=1;align=center;verticalAlign=middle;resizable=0;points=[];" vertex="1" connectable="0" parent="-91Cgx3Kg1AjsspPSeCS-26">
          <mxGeometry x="0.2259" y="1" relative="1" as="geometry">
            <mxPoint as="offset" />
          </mxGeometry>
        </mxCell>
        <mxCell id="-91Cgx3Kg1AjsspPSeCS-28" style="edgeStyle=orthogonalEdgeStyle;rounded=0;orthogonalLoop=1;jettySize=auto;html=1;entryX=1;entryY=0.25;entryDx=0;entryDy=0;exitX=0;exitY=0.75;exitDx=0;exitDy=0;" edge="1" parent="WIyWlLk6GJQsqaUBKTNV-1" source="-91Cgx3Kg1AjsspPSeCS-32" target="-91Cgx3Kg1AjsspPSeCS-25">
          <mxGeometry relative="1" as="geometry">
            <mxPoint x="1410" y="1030" as="sourcePoint" />
            <Array as="points">
              <mxPoint x="1550" y="1045" />
              <mxPoint x="1550" y="1050" />
              <mxPoint x="1340" y="1050" />
            </Array>
          </mxGeometry>
        </mxCell>
        <mxCell id="-91Cgx3Kg1AjsspPSeCS-32" value="&lt;div&gt;&lt;span style=&quot;background-color: initial;&quot;&gt;Timestruct&lt;/span&gt;&lt;br&gt;&lt;/div&gt;" style="rounded=0;whiteSpace=wrap;html=1;" vertex="1" parent="WIyWlLk6GJQsqaUBKTNV-1">
          <mxGeometry x="1760" y="1000" width="120" height="60" as="geometry" />
        </mxCell>
        <mxCell id="-91Cgx3Kg1AjsspPSeCS-33" style="edgeStyle=orthogonalEdgeStyle;rounded=0;orthogonalLoop=1;jettySize=auto;html=1;entryX=1.003;entryY=0.651;entryDx=0;entryDy=0;exitX=0;exitY=0.649;exitDx=0;exitDy=0;exitPerimeter=0;entryPerimeter=0;" edge="1" parent="WIyWlLk6GJQsqaUBKTNV-1" target="-91Cgx3Kg1AjsspPSeCS-9">
          <mxGeometry relative="1" as="geometry">
            <mxPoint x="2060" y="1029.5" as="sourcePoint" />
            <mxPoint x="1880" y="1029.5" as="targetPoint" />
          </mxGeometry>
        </mxCell>
        <mxCell id="-91Cgx3Kg1AjsspPSeCS-34" value="Year, day, month, h, m ,s" style="edgeLabel;html=1;align=center;verticalAlign=middle;resizable=0;points=[];" vertex="1" connectable="0" parent="-91Cgx3Kg1AjsspPSeCS-33">
          <mxGeometry x="0.4479" y="-2" relative="1" as="geometry">
            <mxPoint x="41" y="2" as="offset" />
          </mxGeometry>
        </mxCell>
        <mxCell id="-91Cgx3Kg1AjsspPSeCS-35" style="edgeStyle=orthogonalEdgeStyle;rounded=0;orthogonalLoop=1;jettySize=auto;html=1;entryX=1.01;entryY=0.655;entryDx=0;entryDy=0;entryPerimeter=0;exitX=0.983;exitY=0.637;exitDx=0;exitDy=0;exitPerimeter=0;" edge="1" parent="WIyWlLk6GJQsqaUBKTNV-1" source="-91Cgx3Kg1AjsspPSeCS-32" target="-91Cgx3Kg1AjsspPSeCS-9">
          <mxGeometry relative="1" as="geometry">
            <Array as="points">
              <mxPoint x="1890" y="1038" />
              <mxPoint x="1890" y="1040" />
              <mxPoint x="1952" y="1040" />
            </Array>
          </mxGeometry>
        </mxCell>
        <mxCell id="-91Cgx3Kg1AjsspPSeCS-38" style="edgeStyle=orthogonalEdgeStyle;rounded=0;orthogonalLoop=1;jettySize=auto;html=1;entryX=0.01;entryY=0.954;entryDx=0;entryDy=0;entryPerimeter=0;" edge="1" parent="WIyWlLk6GJQsqaUBKTNV-1" source="-91Cgx3Kg1AjsspPSeCS-37" target="-91Cgx3Kg1AjsspPSeCS-9">
          <mxGeometry relative="1" as="geometry">
            <mxPoint x="1700" y="1150" as="targetPoint" />
          </mxGeometry>
        </mxCell>
        <mxCell id="-91Cgx3Kg1AjsspPSeCS-37" value="PMVirtual" style="whiteSpace=wrap;html=1;aspect=fixed;" vertex="1" parent="WIyWlLk6GJQsqaUBKTNV-1">
          <mxGeometry x="1400" y="1120" width="80" height="80" as="geometry" />
        </mxCell>
        <mxCell id="-91Cgx3Kg1AjsspPSeCS-39" value="" style="endArrow=classic;html=1;rounded=0;entryX=0;entryY=0.75;entryDx=0;entryDy=0;exitX=0.25;exitY=1;exitDx=0;exitDy=0;" edge="1" parent="WIyWlLk6GJQsqaUBKTNV-1" source="-91Cgx3Kg1AjsspPSeCS-0" target="-91Cgx3Kg1AjsspPSeCS-37">
          <mxGeometry width="50" height="50" relative="1" as="geometry">
            <mxPoint x="1009.9999999999999" y="880" as="sourcePoint" />
            <mxPoint x="1278.4" y="1169.04" as="targetPoint" />
            <Array as="points">
              <mxPoint x="1020" y="1180" />
            </Array>
          </mxGeometry>
        </mxCell>
      </root>
    </mxGraphModel>
  </diagram>
</mxfile>
